<svg xmlns="http://www.w3.org/2000/svg"
width="12" height="12" viewBox="0 0 12 12">
<path d="M0.00400016 8.082C0.00389343 8.21382 0.0300086 8.34435 0.0808256 8.46598C0.131643 8.58762 0.206146 8.69793 0.3 8.7905L3.2245 11.703C3.31698 11.7955 3.42682 11.8689 3.54771 11.9189C3.6686 11.969 3.79817 11.9946 3.929 11.9945L8.0325 12C8.29463 12.0003 8.54623 11.8969 8.7325 11.7125L11.6975 8.7925C11.792 8.69948 11.8672 8.58868 11.9187 8.46648C11.9701 8.34428 11.9969 8.2131 11.9975 8.0805V3.9805C11.9978 3.84956 11.9723 3.71986 11.9222 3.59886C11.8722 3.47786 11.7987 3.36796 11.706 3.2755L8.7445 0.299999C8.65177 0.206289 8.54134 0.13195 8.41962 0.0813058C8.29791 0.0306617 8.16733 0.00472344 8.0355 0.00499943H3.9355C3.80318 0.00492135 3.67214 0.0309364 3.54988 0.0815558C3.42762 0.132175 3.31654 0.206406 3.223 0.299999L0.2895 3.28C0.103947 3.4665 -0.000150352 3.71892 1.62996e-07 3.982L0.00400016 8.082ZM4.004 3.437C3.98181 3.31777 4.00703 3.19459 4.07428 3.09368C4.14154 2.99276 4.24552 2.92207 4.36411 2.89666C4.48269 2.87125 4.60651 2.89312 4.70921 2.95762C4.81191 3.02212 4.88539 3.12415 4.914 3.242L5.387 5.4385C5.38822 5.44455 5.39167 5.44993 5.39668 5.45354C5.40168 5.45716 5.40787 5.45875 5.414 5.458C5.42019 5.45738 5.42592 5.45447 5.43008 5.44985C5.43424 5.44523 5.43653 5.43922 5.4365 5.433V2.7175C5.4365 2.59417 5.48549 2.4759 5.5727 2.38869C5.6599 2.30149 5.77818 2.2525 5.9015 2.2525C6.02483 2.2525 6.1431 2.30149 6.23031 2.38869C6.31751 2.4759 6.3665 2.59417 6.3665 2.7175V5.4405C6.36658 5.44669 6.36891 5.45264 6.37304 5.45723C6.37718 5.46183 6.38286 5.46477 6.389 5.4655C6.39513 5.46625 6.40132 5.46466 6.40632 5.46104C6.41133 5.45743 6.41479 5.45205 6.416 5.446L6.889 3.353C6.90194 3.29318 6.92653 3.2365 6.96137 3.18619C6.99621 3.13587 7.04062 3.09291 7.09206 3.05976C7.19596 2.99281 7.32219 2.96988 7.443 2.996C7.50282 3.00893 7.5595 3.03353 7.60982 3.06837C7.66013 3.10321 7.70309 3.14762 7.73624 3.19906C7.76939 3.25051 7.79208 3.30798 7.80302 3.36819C7.81396 3.4284 7.81294 3.49018 7.8 3.55L7.3215 6.1595C7.3205 6.16524 7.32149 6.17114 7.32431 6.17623C7.32713 6.18133 7.33161 6.1853 7.337 6.1875C7.34247 6.18949 7.34845 6.18958 7.35398 6.18777C7.35951 6.18596 7.36427 6.18234 7.3675 6.1775L8.1425 4.957C8.20894 4.85608 8.31201 4.78494 8.42994 4.75862C8.54787 4.73231 8.67141 4.75288 8.77445 4.81599C8.87749 4.8791 8.95195 4.9798 8.9821 5.09681C9.01224 5.21381 8.99571 5.33796 8.936 5.443L8.272 6.69C8.14238 6.93295 8.07471 7.20413 8.075 7.4795C8.075 8.526 7.782 9.3865 6.68 9.387H5.591C5.40238 9.38687 5.21572 9.34862 5.04225 9.27456C4.86877 9.2005 4.71206 9.09214 4.5815 8.956L2.95 6.7855V6.7825C2.8591 6.69896 2.80511 6.58272 2.7999 6.45937C2.7947 6.33602 2.83871 6.21565 2.92225 6.12475C3.00579 6.03385 3.12203 5.97985 3.24538 5.97465C3.36873 5.96945 3.4891 6.01346 3.58 6.097L4.4555 6.8615C4.45936 6.8648 4.46413 6.86685 4.46918 6.86737C4.47423 6.86789 4.47932 6.86686 4.48377 6.86441C4.48822 6.86197 4.49183 6.85823 4.4941 6.85369C4.49637 6.84915 4.49721 6.84403 4.4965 6.839L4.004 3.437Z" fill="#B30D0B"/>
</svg>
